<svg width="939" height="939" viewBox="0 0 939 939" fill="none" xmlns="http://www.w3.org/2000/svg">
<path d="M939 718.147H0V718.617H939V718.147Z" fill="#E6E6E6"/>
<path d="M234.412 746.561H172.213V747.031H234.412V746.561Z" fill="#E6E6E6"/>
<path d="M152.531 746.561H116.492V747.031H152.531V746.561Z" fill="#E6E6E6"/>
<path d="M395.413 753.472H359.374V753.942H395.413V753.472Z" fill="#E6E6E6"/>
<path d="M583.326 763.952H502.215V764.421H583.326V763.952Z" fill="#E6E6E6"/>
<path d="M485.501 763.952H473.613V764.421H485.501V763.952Z" fill="#E6E6E6"/>
<path d="M851.391 753.472H675.46V753.942H851.391V753.472Z" fill="#E6E6E6"/>
<path d="M445.086 634.388H82.463C79.6222 634.383 76.8995 633.251 74.8925 631.241C72.8856 629.23 71.7584 626.506 71.7584 623.665V113.919C71.7831 111.095 72.9212 108.394 74.9255 106.404C76.9298 104.414 79.6384 103.295 82.463 103.29H445.086C447.93 103.29 450.658 104.42 452.669 106.431C454.68 108.442 455.809 111.169 455.809 114.013V623.665C455.809 626.509 454.68 629.237 452.669 631.248C450.658 633.259 447.93 634.388 445.086 634.388ZM82.463 103.666C79.7467 103.671 77.1434 104.753 75.2245 106.676C73.3056 108.598 72.2279 111.203 72.2279 113.919V623.665C72.2279 626.381 73.3056 628.987 75.2245 630.909C77.1434 632.831 79.7467 633.914 82.463 633.919H445.086C447.804 633.914 450.409 632.832 452.331 630.91C454.253 628.988 455.335 626.383 455.34 623.665V113.919C455.335 111.202 454.253 108.596 452.331 106.674C450.409 104.752 447.804 103.671 445.086 103.666H82.463Z" fill="#E6E6E6"/>
<path d="M851.316 634.388H488.674C485.832 634.383 483.107 633.252 481.097 631.242C479.087 629.232 477.956 626.508 477.951 623.665V113.919C477.981 111.093 479.123 108.393 481.13 106.403C483.137 104.413 485.848 103.295 488.674 103.29H851.316C854.137 103.3 856.841 104.421 858.841 106.411C860.842 108.4 861.977 111.098 862.002 113.919V623.665C862.002 626.503 860.877 629.224 858.874 631.234C856.872 633.244 854.154 634.378 851.316 634.388ZM488.674 103.666C485.956 103.671 483.351 104.752 481.429 106.674C479.507 108.596 478.425 111.202 478.42 113.919V623.665C478.425 626.383 479.507 628.988 481.429 630.91C483.351 632.832 485.956 633.914 488.674 633.919H851.316C854.034 633.914 856.639 632.832 858.561 630.91C860.483 628.988 861.565 626.383 861.57 623.665V113.919C861.565 111.202 860.483 108.596 858.561 106.674C856.639 104.752 854.034 103.671 851.316 103.666H488.674Z" fill="#E6E6E6"/>
<path d="M502.177 557.728H460.88V721.546H502.177V557.728Z" fill="#E0E0E0"/>
<path d="M494.327 721.546H502.177V699.236H486.102L494.327 721.546Z" fill="#FAFAFA"/>
<path d="M321.213 557.728H279.916V721.546H321.213V557.728Z" fill="#E0E0E0"/>
<path d="M502.177 557.728H314.377V707.856H502.177V557.728Z" fill="#FAFAFA"/>
<path d="M495.36 565.109V604.829H321.138V565.109H495.304M496.036 564.377H320.462V605.542H496.092V564.377H496.036Z" fill="#E0E0E0"/>
<path d="M322.208 721.546H314.377V699.236H330.434L322.208 721.546Z" fill="#FAFAFA"/>
<path d="M404.127 584.959C404.127 585.78 404.37 586.583 404.826 587.265C405.282 587.948 405.931 588.48 406.689 588.794C407.447 589.108 408.282 589.19 409.087 589.03C409.892 588.87 410.632 588.475 411.212 587.894C411.792 587.314 412.188 586.574 412.348 585.769C412.508 584.964 412.426 584.13 412.112 583.371C411.798 582.613 411.266 581.965 410.583 581.509C409.901 581.052 409.098 580.809 408.277 580.809C407.176 580.809 406.121 581.246 405.342 582.025C404.564 582.803 404.127 583.859 404.127 584.959Z" fill="#E6E6E6"/>
<path d="M495.36 612.923V652.643H321.138V612.923H495.304M496.036 612.209H320.462V653.375H496.092V612.228L496.036 612.209Z" fill="#E0E0E0"/>
<path d="M404.127 632.886C404.127 633.707 404.37 634.509 404.826 635.192C405.282 635.874 405.931 636.406 406.689 636.72C407.447 637.035 408.282 637.117 409.087 636.957C409.892 636.797 410.632 636.401 411.212 635.821C411.792 635.24 412.188 634.501 412.348 633.696C412.508 632.891 412.426 632.056 412.112 631.298C411.798 630.539 411.266 629.891 410.583 629.435C409.901 628.979 409.098 628.736 408.277 628.736C407.176 628.736 406.121 629.173 405.342 629.951C404.564 630.73 404.127 631.785 404.127 632.886Z" fill="#E6E6E6"/>
<path d="M495.36 660.756V700.494H321.138V660.756H495.304M496.036 660.023H320.462V701.208H496.092V660.023H496.036Z" fill="#E0E0E0"/>
<path d="M404.127 680.625C404.131 681.445 404.377 682.245 404.835 682.926C405.294 683.606 405.943 684.135 406.702 684.446C407.461 684.757 408.295 684.837 409.098 684.674C409.902 684.512 410.64 684.115 411.219 683.534C411.797 682.953 412.191 682.213 412.349 681.409C412.508 680.604 412.425 679.771 412.11 679.013C411.795 678.256 411.263 677.609 410.581 677.154C409.899 676.699 409.097 676.456 408.277 676.456C407.731 676.456 407.189 676.564 406.685 676.773C406.18 676.983 405.721 677.291 405.336 677.678C404.95 678.065 404.645 678.525 404.437 679.031C404.23 679.536 404.124 680.078 404.127 680.625Z" fill="#E6E6E6"/>
<path d="M295.992 462.589H254.694V721.565H295.992V462.589Z" fill="#E0E0E0"/>
<path d="M288.142 721.546H295.992V699.236H279.935L288.142 721.546Z" fill="#FAFAFA"/>
<path d="M141.658 462.589H100.36V721.565H141.658V462.589Z" fill="#E0E0E0"/>
<path d="M295.992 462.589H134.803V707.875H295.992V462.589Z" fill="#FAFAFA"/>
<path d="M289.043 469.5V525.032H141.751V469.5H289.043ZM289.907 468.655H140.85V525.84H289.869V468.674L289.907 468.655Z" fill="#E0E0E0"/>
<path d="M289.043 531.812V679.104H218.881V531.812H289.043ZM289.907 530.948H218.036V679.967H289.907V530.948Z" fill="#E0E0E0"/>
<path d="M211.913 531.812V679.104H141.751V531.812H211.913ZM212.759 530.948H140.85V679.967H212.721V530.948H212.759Z" fill="#E0E0E0"/>
<path d="M142.653 721.546H134.803V699.236H150.879L142.653 721.546Z" fill="#FAFAFA"/>
<path d="M211.237 497.294C211.234 498.12 211.475 498.928 211.931 499.616C212.387 500.304 213.037 500.841 213.798 501.16C214.56 501.478 215.398 501.563 216.208 501.405C217.018 501.246 217.763 500.85 218.348 500.268C218.933 499.686 219.332 498.943 219.494 498.134C219.657 497.324 219.575 496.485 219.26 495.722C218.945 494.959 218.411 494.307 217.725 493.848C217.039 493.389 216.232 493.144 215.407 493.144C214.304 493.144 213.247 493.581 212.465 494.359C211.684 495.136 211.242 496.192 211.237 497.294Z" fill="#E6E6E6"/>
<path d="M226.111 601.955C226.111 602.781 226.356 603.587 226.815 604.273C227.274 604.96 227.926 605.494 228.689 605.809C229.452 606.124 230.291 606.205 231.101 606.043C231.91 605.88 232.653 605.482 233.235 604.897C233.817 604.312 234.213 603.567 234.372 602.757C234.53 601.947 234.445 601.108 234.127 600.347C233.808 599.585 233.271 598.935 232.583 598.48C231.895 598.024 231.087 597.782 230.262 597.786C229.715 597.786 229.174 597.894 228.669 598.104C228.164 598.314 227.706 598.621 227.32 599.008C226.934 599.396 226.629 599.856 226.422 600.361C226.214 600.867 226.109 601.409 226.111 601.955Z" fill="#E6E6E6"/>
<path d="M196.382 601.955C196.386 602.775 196.633 603.576 197.091 604.256C197.549 604.936 198.199 605.465 198.958 605.776C199.716 606.088 200.55 606.167 201.354 606.005C202.158 605.843 202.896 605.446 203.474 604.865C204.053 604.284 204.446 603.544 204.605 602.739C204.763 601.935 204.68 601.101 204.365 600.344C204.051 599.587 203.519 598.94 202.837 598.484C202.155 598.029 201.353 597.786 200.533 597.786C199.986 597.786 199.445 597.894 198.94 598.104C198.435 598.314 197.977 598.621 197.591 599.008C197.206 599.396 196.9 599.856 196.693 600.361C196.486 600.867 196.38 601.409 196.382 601.955Z" fill="#E6E6E6"/>
<path d="M191.687 390.38H174.278C175.883 398.825 176.893 407.372 177.302 415.958C177.302 425.348 164.043 462.589 182.936 462.589C201.829 462.589 188.57 425.442 188.57 415.958C189.01 407.37 190.052 398.823 191.687 390.38Z" fill="#E0E0E0"/>
<path d="M125.45 428.466V439.734C125.47 445.774 127.879 451.562 132.15 455.833C136.421 460.104 142.209 462.513 148.249 462.533H159.517C165.558 462.513 171.345 460.104 175.617 455.833C179.888 451.562 182.296 445.774 182.316 439.734V428.466H125.45Z" fill="#F5F5F5"/>
<path d="M367.468 533.84C367.468 546.986 382.173 557.728 400.145 557.728H416.371C434.344 557.728 449.049 546.986 449.049 533.84H367.468Z" fill="#E0E0E0"/>
<path d="M797.418 514.572C787.577 522.61 773.98 537.315 761.548 558.01C753.247 571.795 748.252 586.18 746.054 605.298C746.054 583.701 746.186 560.508 746.261 538.61C748.759 532.976 754.468 519.981 758.562 509.727C772.215 475.491 777.342 467.059 789.605 437.536C806 398.098 822.789 351.411 817.982 355.149C808.179 362.754 770.619 433.086 766.562 443.152C755.505 470.015 748.67 498.427 746.299 527.38C746.299 506.722 746.449 487.942 746.524 473.369C746.787 425.837 747.594 410.493 747.989 405.761C749.51 403.357 751.294 400.559 752.346 399.056C761.172 386.286 764.571 375.431 772.872 356.388C784.666 329.439 794.807 281.569 791.84 283.972C779.483 294.038 769.755 315.635 756.947 343.186C744.139 370.736 747.801 386.568 745.266 410.08C744.74 414.7 744.327 432.128 744.026 456.26C740.721 430.532 734.486 413.592 723.124 398.192C709.152 379.243 695.63 366.454 685.714 359.768C675.798 353.083 702.842 399.62 715.762 419.864C727.274 437.968 737.885 453.913 743.932 469.631C743.613 502.365 743.463 543.794 743.463 582.311C740.495 564.771 735.65 545.859 729.19 531.23C721.415 513.652 709.471 486.684 699.949 477.538C697.677 475.341 709.903 527.793 717.753 541.728C725.603 555.663 731.368 568.827 736.308 576.734C737.453 578.612 741.284 585.692 743.463 589.786C743.463 636.867 743.726 678.409 744.139 692.55H746.167C746.036 688.907 745.998 664.943 746.054 633.243C750.956 616.04 762.149 596.396 771.389 578.48C781.455 559.081 807.258 506.591 797.418 514.572Z" fill="#E0E0E0"/>
<path d="M774.562 721.546H715.706L711.255 663.854H779.013L774.562 721.546Z" fill="#F0F0F0"/>
<path d="M783.389 670.577H706.86L704.682 651.103H785.586L783.389 670.577Z" fill="#F5F5F5"/>
<path d="M233.36 141.789H128.098V257.38H233.36V141.789Z" fill="#E0E0E0"/>
<path d="M244.76 141.789H136.024V257.38H244.76V141.789Z" fill="#F5F5F5"/>
<path d="M235.651 248.272V150.897H145.132V248.272H235.651Z" fill="white"/>
<path d="M213.698 224.646V174.485H167.067V224.646H213.698Z" fill="#F5F5F5"/>
<path d="M770.074 155.254H672.286V262.638H770.074V155.254Z" fill="#E0E0E0"/>
<path d="M780.666 155.254H679.667V262.638H780.666V155.254Z" fill="#F5F5F5"/>
<path d="M772.215 254.169V163.724H688.137V254.169H772.215Z" fill="white"/>
<path d="M730.166 235.182C744.656 235.182 756.402 223.436 756.402 208.946C756.402 194.457 744.656 182.711 730.166 182.711C715.677 182.711 703.931 194.457 703.931 208.946C703.931 223.436 715.677 235.182 730.166 235.182Z" fill="#F5F5F5"/>
<path d="M342.716 210.712H264.629V296.461H342.716V210.712Z" fill="#E0E0E0"/>
<path d="M351.167 210.712H270.507V296.461H351.167V210.712Z" fill="#F5F5F5"/>
<path d="M344.406 289.7V217.472H277.268V289.7H344.406Z" fill="white"/>
<path d="M310.847 235.313L292.48 267.127H329.213L310.847 235.313Z" fill="#F5F5F5"/>
<path d="M469.5 802.958C670.601 802.958 833.625 793.44 833.625 781.699C833.625 769.958 670.601 760.44 469.5 760.44C268.399 760.44 105.375 769.958 105.375 781.699C105.375 793.44 268.399 802.958 469.5 802.958Z" fill="#F5F5F5"/>
<path d="M655.891 306.922L637.262 299.41C637.262 299.41 612.679 344.237 605.636 346.51C596.058 349.59 576.227 358.153 564.47 359.656C562.874 361.534 560.264 367.374 560.508 369.497C576.302 374.774 611.007 367.769 618.444 362.247C635.365 349.721 655.891 306.922 655.891 306.922Z" fill="#E58A7B"/>
<path d="M661.619 296.724C665.094 309.551 646.276 335.354 646.276 335.354L621.618 321.532C621.618 321.532 626.238 310.922 631.872 300.123C640.905 282.677 657.657 282.094 661.619 296.724Z" fill="#37B8F1"/>
<path opacity="0.2" d="M661.619 296.724C665.094 309.551 646.276 335.354 646.276 335.354L621.618 321.532C621.618 321.532 626.238 310.922 631.872 300.123C640.905 282.677 657.657 282.094 661.619 296.724Z" fill="black"/>
<path opacity="0.2" d="M631.402 327.054L641.112 332.5L642.821 302.696C637.168 307.034 633.186 320.105 631.402 327.054Z" fill="black"/>
<path d="M645.393 287.071C645.393 287.071 626.2 329.777 637.393 409.291H713.02C714.222 397.685 710.241 341.045 724.645 286.357C716.349 284.736 707.955 283.663 699.517 283.146C688.816 282.526 678.087 282.526 667.385 283.146C659.966 283.899 652.615 285.211 645.393 287.071Z" fill="#37B8F1"/>
<path opacity="0.2" d="M645.393 287.071C645.393 287.071 626.2 329.777 637.393 409.291H713.02C714.222 397.685 710.241 341.045 724.645 286.357C716.349 284.736 707.955 283.663 699.517 283.146C688.816 282.526 678.087 282.526 667.385 283.146C659.966 283.899 652.615 285.211 645.393 287.071Z" fill="black"/>
<g style="mix-blend-mode:multiply">
<path d="M627.853 783.389C627.74 785.417 656.417 787.051 691.893 787.051C727.368 787.051 756.252 785.417 756.364 783.389C756.477 781.361 727.819 779.746 692.325 779.746C656.83 779.746 627.984 781.38 627.853 783.389Z" fill="#E8ECF1"/>
</g>
<path d="M678.335 730.097L664.921 735.289L676.475 765.137L689.889 759.945L678.335 730.097Z" fill="#E58A7B"/>
<path d="M738.148 768.947H724.007L718.823 736.214H732.965L738.148 768.947Z" fill="#E58A7B"/>
<path d="M723.03 767.313H738.918C739.193 767.314 739.46 767.413 739.67 767.592C739.879 767.77 740.019 768.018 740.063 768.29L742.11 780.854C742.154 781.169 742.128 781.49 742.037 781.794C741.945 782.099 741.788 782.38 741.578 782.619C741.368 782.858 741.109 783.048 740.818 783.178C740.528 783.307 740.213 783.373 739.894 783.37C734.354 783.276 731.688 782.938 724.701 782.938C720.401 782.938 711.555 783.389 705.583 783.389C699.611 783.389 699.217 777.53 701.677 776.985C712.72 774.6 717.002 771.351 720.682 768.196C721.332 767.626 722.166 767.312 723.03 767.313Z" fill="#263238"/>
<path d="M676.08 762.468L691.104 758.073C691.372 757.998 691.658 758.016 691.914 758.126C692.17 758.235 692.382 758.429 692.513 758.674L698.147 769.942C698.277 770.228 698.344 770.539 698.342 770.854C698.341 771.168 698.27 771.478 698.136 771.763C698.002 772.047 697.807 772.299 697.566 772.5C697.324 772.701 697.042 772.848 696.738 772.928C691.273 774.431 687.611 775.351 680.775 777.342C676.061 778.713 671.254 780.947 666.596 782.431C663.366 783.464 655.779 783.502 651.854 783.502C646.051 783.502 644.755 777.379 647.253 777.098C653.544 776.403 654.389 776.722 657.863 774.975C663.548 772.491 668.7 768.932 673.038 764.496C673.856 763.564 674.905 762.864 676.08 762.468Z" fill="#263238"/>
<path d="M566.837 359.581L551.287 353.064L544.883 370.304C551.256 371.275 557.74 371.275 564.114 370.304L566.837 359.581Z" fill="#E58A7B"/>
<path d="M539.718 352.613L539.305 364.069L544.883 370.266L551.287 353.026L539.718 352.613Z" fill="#E58A7B"/>
<path d="M680.175 732.631L666.72 737.826L672.679 753.261L686.134 748.066L680.175 732.631Z" fill="#CF6F64"/>
<path d="M732.965 736.214H718.823L721.509 753.097H735.65L732.965 736.214Z" fill="#CF6F64"/>
<path opacity="0.2" d="M634.989 387.788C635.271 391.187 635.59 394.662 636.003 398.23L692.231 379.976C701.012 377.373 708.643 371.855 713.865 364.332C714.091 359.318 714.372 354.041 714.804 348.538C714.992 345.871 715.218 343.129 715.462 340.35C715.706 337.57 716.044 334.491 716.401 331.523L634.989 387.788Z" fill="black"/>
<path d="M653.356 326.19L651.478 325.964C652.586 316.574 659.591 309.175 666.972 309.363V311.241C660.511 311.109 654.352 317.776 653.356 326.19Z" fill="white"/>
<path d="M663.366 343.524H663.047V341.646C669.507 341.89 675.573 335.148 676.568 326.753L678.446 326.979C677.451 336.162 670.671 343.524 663.366 343.524Z" fill="white"/>
<path d="M698.466 246.957C695.818 257.305 692.7 276.254 699.517 283.146C699.517 283.146 694.747 293.644 675.535 293.644C657.976 293.644 667.385 283.146 667.385 283.146C679.066 280.404 679.273 271.878 677.733 263.803L698.466 246.957Z" fill="#E58A7B"/>
<path d="M690.015 253.83L677.751 263.803C678.132 265.658 678.351 267.543 678.409 269.437C681.996 273.005 689.188 263.972 689.921 259.352C690.293 257.533 690.325 255.661 690.015 253.83Z" fill="#CF6F64"/>
<path d="M656.662 246.826C657.515 248.305 658.664 249.592 660.037 250.606C661.411 251.621 662.979 252.341 664.643 252.722C669.15 253.718 671.404 249.567 670.164 245.398C669.056 241.642 665.357 236.59 660.774 237.454C659.793 237.657 658.874 238.091 658.095 238.721C657.316 239.352 656.699 240.159 656.296 241.077C655.893 241.995 655.716 242.996 655.78 243.996C655.844 244.996 656.146 245.966 656.662 246.826Z" fill="#CF6F64"/>
<path d="M664.117 213.716C657.093 216.928 654.614 244.835 663.441 248.966C672.268 253.098 677.413 207.613 664.117 213.716Z" fill="#263238"/>
<path d="M700.607 231.388C698.916 245.398 698.729 253.643 691.217 260.817C688.889 263.197 685.948 264.888 682.72 265.703C679.492 266.518 676.101 266.425 672.922 265.434C669.744 264.443 666.901 262.593 664.707 260.088C662.514 257.583 661.055 254.521 660.493 251.239C658.22 238.656 661.356 217.867 675.404 212.289C678.355 210.987 681.601 210.499 684.805 210.874C688.009 211.249 691.055 212.474 693.626 214.422C696.197 216.371 698.2 218.971 699.427 221.954C700.655 224.938 701.062 228.195 700.607 231.388Z" fill="#E58A7B"/>
<path d="M677.526 220.965C687.93 218.318 695.574 216.515 692.832 225.172C689.207 236.741 684.85 247.934 690.691 248.441C694.259 248.76 710.034 242.074 708.025 235.295C706.278 229.398 713.659 227.783 714.973 224.797C719.837 213.979 705.921 215.407 708.4 208.834C710.879 202.261 697.132 191.669 689.62 196.946C677.395 205.472 656.417 205.341 667.441 191.312C675.348 181.302 661.244 183.349 661.244 183.349C661.244 183.349 669.77 188.401 655.422 196.213C640.248 204.552 654.164 226.956 677.526 220.965Z" fill="#263238"/>
<path d="M706.128 246.826C704.074 249.798 700.988 251.899 697.47 252.722C692.832 253.718 691.048 249.567 692.794 245.398C694.353 241.642 698.635 236.59 703.067 237.454C707.499 238.318 708.513 243.145 706.128 246.826Z" fill="#E58A7B"/>
<path d="M637.393 409.291C637.393 409.291 624.698 522.91 623.703 566.029C622.688 610.876 666.728 750.806 666.728 750.806L689.264 741.416C689.264 741.416 662.972 613.561 666.728 569.522C670.709 521.502 687.16 409.366 687.16 409.366L637.393 409.291Z" fill="#37B8F1"/>
<path opacity="0.2" d="M668.944 440.485C658.821 461.481 665.638 503.004 671.122 527.605C673.207 510.234 675.686 491.379 678.033 473.932C677.808 447.114 675.723 426.4 668.944 440.485Z" fill="black"/>
<path d="M688.268 733.979C688.381 733.979 690.935 741.153 690.935 741.153L664.943 752.083L660.849 744.458L688.268 733.979Z" fill="#37B8F1"/>
<path d="M664.23 409.291C664.23 409.291 673.939 517.351 680.362 557.822C687.423 602.162 715.105 749.829 715.105 749.829H741.002C741.002 749.829 725.49 605.749 722.561 561.841C719.368 514.215 713.02 409.291 713.02 409.291H664.23Z" fill="#37B8F1"/>
<path d="M741.397 743.087C741.51 743.087 742.261 750.317 742.261 750.317H713.79L711.762 742.017L741.397 743.087Z" fill="#37B8F1"/>
<path opacity="0.2" d="M731.481 734.523C731.422 734.524 731.365 734.504 731.32 734.466C731.276 734.428 731.246 734.375 731.237 734.317C731.087 733.002 717.095 602.857 714.466 563.419C711.612 520.638 705.865 425.743 705.809 424.785C705.806 424.754 705.81 424.722 705.82 424.693C705.83 424.663 705.847 424.636 705.868 424.613C705.889 424.59 705.915 424.572 705.943 424.559C705.972 424.547 706.003 424.541 706.034 424.541C706.096 424.54 706.155 424.564 706.2 424.605C706.246 424.647 706.273 424.705 706.278 424.766C706.278 425.724 712.081 520.544 714.936 563.4C717.565 602.838 731.556 732.89 731.688 734.298C731.693 734.329 731.692 734.361 731.684 734.391C731.676 734.422 731.662 734.451 731.643 734.475C731.623 734.5 731.599 734.521 731.571 734.535C731.543 734.55 731.512 734.559 731.481 734.561V734.523Z" fill="black"/>
<path d="M679.122 235.295C679.122 236.44 678.409 237.36 677.657 237.36C676.906 237.36 676.362 236.44 676.437 235.295C676.512 234.149 677.15 233.229 677.902 233.229C678.653 233.229 679.197 234.168 679.122 235.295Z" fill="#263238"/>
<path d="M666.239 235.295C666.239 236.44 665.507 237.36 664.774 237.36C664.042 237.36 663.479 236.44 663.535 235.295C663.591 234.149 664.267 233.229 665.019 233.229C665.77 233.229 666.314 234.168 666.239 235.295Z" fill="#263238"/>
<path d="M670.296 235.877C668.728 239.375 666.708 242.652 664.286 245.624C666.164 247.502 669.676 246.638 669.676 246.638L670.296 235.877Z" fill="#DF5753"/>
<path d="M670.634 251.427C670.59 251.427 670.547 251.418 670.507 251.401C670.467 251.383 670.431 251.358 670.401 251.327C670.371 251.295 670.348 251.257 670.333 251.217C670.318 251.176 670.312 251.132 670.315 251.089C670.319 250.997 670.359 250.911 670.425 250.848C670.492 250.785 670.58 250.75 670.671 250.751C672.108 250.761 673.528 250.449 674.828 249.838C676.128 249.227 677.274 248.332 678.183 247.22C678.248 247.163 678.332 247.132 678.418 247.132C678.504 247.132 678.588 247.163 678.653 247.22C678.714 247.283 678.748 247.367 678.748 247.455C678.748 247.542 678.714 247.626 678.653 247.689C677.68 248.871 676.455 249.821 675.067 250.467C673.679 251.114 672.165 251.442 670.634 251.427Z" fill="#263238"/>
<path d="M681.414 231.839C681.323 231.885 681.224 231.909 681.122 231.909C681.021 231.909 680.921 231.885 680.831 231.839C680.129 231.385 679.329 231.102 678.497 231.014C677.665 230.926 676.825 231.035 676.042 231.332C675.966 231.37 675.883 231.393 675.798 231.398C675.713 231.404 675.628 231.392 675.547 231.364C675.467 231.336 675.393 231.292 675.329 231.235C675.266 231.178 675.215 231.109 675.179 231.032C675.109 230.864 675.107 230.677 675.174 230.508C675.24 230.34 675.37 230.204 675.535 230.13C676.517 229.729 677.581 229.571 678.637 229.669C679.693 229.767 680.71 230.119 681.601 230.694C681.673 230.742 681.735 230.805 681.782 230.878C681.83 230.951 681.862 231.033 681.878 231.118C681.894 231.204 681.892 231.292 681.874 231.377C681.855 231.462 681.82 231.542 681.77 231.614C681.675 231.721 681.552 231.8 681.414 231.839Z" fill="#263238"/>
<path d="M661.263 228.083C661.162 228.059 661.071 228.007 661 227.933C660.937 227.872 660.888 227.799 660.854 227.718C660.82 227.637 660.802 227.551 660.802 227.463C660.802 227.376 660.82 227.289 660.854 227.209C660.888 227.128 660.937 227.055 661 226.994C661.719 226.187 662.616 225.556 663.619 225.152C664.623 224.749 665.706 224.582 666.784 224.665C666.87 224.678 666.953 224.709 667.027 224.756C667.101 224.803 667.165 224.864 667.214 224.936C667.263 225.008 667.297 225.09 667.314 225.176C667.33 225.261 667.329 225.35 667.31 225.435C667.269 225.609 667.167 225.762 667.022 225.866C666.877 225.97 666.699 226.017 666.521 225.999C665.668 225.945 664.813 226.086 664.023 226.411C663.232 226.737 662.526 227.238 661.957 227.877C661.872 227.972 661.762 228.041 661.639 228.078C661.516 228.114 661.386 228.116 661.263 228.083Z" fill="#263238"/>
<path d="M731.913 304.837L712.382 299.635C712.382 299.635 693.226 346.791 686.447 349.853C677.244 354.059 653.938 368.633 644.023 375.525C643.478 377.872 643.91 384.089 645.149 385.798C662.051 382.718 694.409 370.266 701.17 363.938C716.588 349.496 731.913 304.837 731.913 304.837Z" fill="#E58A7B"/>
<path d="M718.279 769.792C717.326 769.868 716.376 769.609 715.593 769.06C715.351 768.841 715.17 768.564 715.068 768.254C714.966 767.945 714.946 767.614 715.011 767.294C715.023 767.095 715.088 766.902 715.201 766.737C715.313 766.572 715.468 766.44 715.649 766.355C717.227 765.548 721.64 768.346 722.147 768.665C722.203 768.7 722.246 768.751 722.27 768.812C722.294 768.873 722.297 768.94 722.279 769.003C722.263 769.069 722.23 769.129 722.184 769.179C722.138 769.228 722.08 769.265 722.016 769.285C720.792 769.586 719.539 769.756 718.279 769.792ZM716.401 766.863C716.258 766.831 716.111 766.831 715.969 766.863C715.897 766.899 715.837 766.956 715.797 767.026C715.757 767.096 715.738 767.176 715.743 767.257C715.693 767.475 715.702 767.703 715.768 767.918C715.834 768.132 715.955 768.325 716.119 768.478C716.851 769.135 718.692 769.21 721.114 768.741C719.672 767.79 718.047 767.151 716.344 766.863H716.401Z" fill="#37B8F1"/>
<path d="M721.922 769.285C721.873 769.301 721.821 769.301 721.772 769.285C720.363 768.496 717.715 765.398 718.11 763.82C718.169 763.57 718.31 763.347 718.511 763.187C718.712 763.027 718.961 762.939 719.218 762.937C719.47 762.904 719.726 762.925 719.969 762.999C720.212 763.074 720.436 763.2 720.626 763.369C722.185 764.703 722.279 768.797 722.279 769.003C722.288 769.065 722.276 769.128 722.246 769.182C722.215 769.237 722.167 769.28 722.11 769.304C722.047 769.317 721.981 769.31 721.922 769.285ZM719.405 763.557H719.274C718.842 763.557 718.786 763.801 718.767 763.895C718.542 764.815 720.213 767.163 721.603 768.271C721.596 766.684 721.105 765.138 720.194 763.839C719.976 763.649 719.695 763.548 719.405 763.557Z" fill="#37B8F1"/>
<path d="M668.418 767.445C667.269 767.845 666.018 767.845 664.868 767.445C664.607 767.303 664.386 767.098 664.225 766.849C664.065 766.6 663.969 766.314 663.948 766.017C663.924 765.832 663.948 765.643 664.017 765.469C664.086 765.295 664.198 765.141 664.342 765.022C665.845 763.67 671.986 765.022 672.681 765.285C672.747 765.302 672.805 765.341 672.846 765.396C672.887 765.45 672.908 765.517 672.906 765.586C672.909 765.656 672.891 765.726 672.854 765.786C672.817 765.846 672.764 765.894 672.7 765.924C671.317 766.548 669.885 767.057 668.418 767.445ZM665.357 765.21C665.142 765.253 664.942 765.35 664.774 765.492C664.715 765.536 664.669 765.597 664.642 765.667C664.616 765.737 664.609 765.813 664.624 765.886C664.636 766.083 664.698 766.274 664.803 766.441C664.908 766.609 665.053 766.747 665.225 766.844C666.22 767.37 668.53 766.956 671.516 765.698C669.505 765.191 667.423 765.026 665.357 765.21Z" fill="#37B8F1"/>
<path d="M672.643 765.924H672.493C670.615 765.585 666.859 763.426 666.746 761.811C666.746 761.435 666.915 760.909 667.817 760.609C668.121 760.5 668.445 760.454 668.767 760.474C669.09 760.493 669.405 760.577 669.695 760.721C671.723 761.717 672.794 765.323 672.85 765.492C672.863 765.548 672.861 765.608 672.845 765.664C672.828 765.72 672.798 765.77 672.756 765.811C672.728 765.857 672.689 765.895 672.643 765.924ZM668.192 761.172H668.005C667.422 761.379 667.422 761.623 667.422 761.698C667.422 762.675 670.146 764.459 672.042 765.06C671.605 763.551 670.681 762.23 669.413 761.304C669.036 761.112 668.602 761.065 668.192 761.172Z" fill="#37B8F1"/>
<path d="M645.619 374.417L626.031 383.431L623.759 389.065L630.989 393.929C630.989 393.929 644.511 392.464 648.361 383.769L645.619 374.417Z" fill="#E58A7B"/>
<path d="M646.445 386.117C646.007 382.353 644.765 378.728 642.802 375.487L645.901 373.159C648.231 376.893 649.718 381.091 650.257 385.459L646.445 386.117Z" fill="#263238"/>
<path d="M649.788 377.084C650.202 377.735 650.406 378.498 650.371 379.269C650.336 380.04 650.064 380.781 649.593 381.393C649.121 382.004 648.473 382.455 647.736 382.685C647 382.914 646.21 382.912 645.475 382.677C644.74 382.442 644.095 381.986 643.628 381.371C643.161 380.757 642.895 380.013 642.865 379.242C642.836 378.471 643.045 377.709 643.463 377.061C643.882 376.413 644.491 375.909 645.206 375.619C646.008 375.21 646.94 375.134 647.798 375.409C648.656 375.683 649.371 376.285 649.788 377.084Z" fill="#263238"/>
<path d="M612.791 390.718L615.402 393.347L632.98 385.835L626.031 383.431L612.791 390.718Z" fill="#E58A7B"/>
<path opacity="0.2" d="M688.268 733.979C688.381 733.979 690.935 741.153 690.935 741.153L664.943 752.083L660.849 744.458L688.268 733.979Z" fill="black"/>
<path opacity="0.2" d="M741.397 743.087C741.51 743.087 742.261 750.317 742.261 750.317H713.79L711.762 742.017L741.397 743.087Z" fill="black"/>
<path d="M737.002 299.428C742.167 316.086 721.978 338.866 721.978 338.866L694.09 327.486C697.396 317.858 701.207 308.411 705.508 299.184C714.072 280.723 731.781 282.62 737.002 299.428Z" fill="#37B8F1"/>
<path opacity="0.2" d="M737.002 299.428C742.167 316.086 721.978 338.866 721.978 338.866L694.09 327.486C697.396 317.858 701.207 308.411 705.508 299.184C714.072 280.723 731.781 282.62 737.002 299.428Z" fill="black"/>
<path d="M459.885 132.53H447.884V134.465H459.885V132.53Z" fill="#37B8F1"/>
<path d="M615.229 209.09L613.777 241.321L615.709 241.408L617.162 209.177L615.229 209.09Z" fill="#37B8F1"/>
<path d="M611.496 141.207H389.892L369.271 602.669H590.875L611.496 141.207Z" fill="#37B8F1"/>
<path opacity="0.56" d="M604.885 147.554H383.281L362.661 609.017H584.265L604.885 147.554Z" fill="#FAFAFA"/>
<path opacity="0.07" d="M598.274 153.883H376.67L356.031 615.345H577.635L598.274 153.883Z" fill="#37B8F1"/>
<path d="M573.053 355.149H383.901L382.323 390.455H571.475L573.053 355.149Z" fill="white"/>
<path d="M487.923 329.382H385.046L384.352 345.176H487.228L487.923 329.382Z" fill="#37B8F1"/>
<path d="M568.79 450.438H379.638L378.06 485.745H567.212L568.79 450.438Z" fill="white"/>
<path opacity="0.47" d="M534.103 533.427H406.906L405.009 575.738H532.206L534.103 533.427Z" fill="#37B8F1"/>
<path d="M525.596 582.311H398.399C398.343 582.326 398.285 582.326 398.23 582.311C398.211 582.257 398.211 582.197 398.23 582.142L400.108 539.812C400.108 539.784 400.114 539.755 400.125 539.729C400.137 539.702 400.154 539.679 400.175 539.659C400.196 539.64 400.221 539.625 400.248 539.616C400.276 539.607 400.305 539.603 400.333 539.606H527.53C527.554 539.594 527.579 539.588 527.605 539.588C527.631 539.588 527.657 539.594 527.68 539.606C527.694 539.629 527.701 539.654 527.701 539.681C527.701 539.707 527.694 539.733 527.68 539.756L525.84 582.18C525.817 582.224 525.782 582.26 525.738 582.284C525.695 582.307 525.645 582.317 525.596 582.311ZM398.624 581.861H525.37L527.248 539.981H400.502L398.624 581.861Z" fill="white"/>
<path d="M465.706 424.672H380.783L380.088 440.485H464.993L465.706 424.672Z" fill="#37B8F1"/>
<path d="M531.681 241.098C531.195 251.373 527.541 261.246 521.22 269.362C516.541 275.492 510.52 280.468 503.618 283.909C496.716 287.35 489.118 289.164 481.407 289.212C475.175 289.26 468.999 288.031 463.26 285.601C457.521 283.172 452.341 279.593 448.037 275.085C443.734 270.578 440.399 265.237 438.237 259.392C436.076 253.546 435.135 247.321 435.471 241.098C436.131 228.185 441.7 216.012 451.038 207.068C460.376 198.124 472.778 193.086 485.707 192.983C491.944 192.925 498.126 194.146 503.872 196.572C509.618 198.997 514.805 202.575 519.114 207.084C523.422 211.593 526.761 216.938 528.922 222.789C531.084 228.639 532.022 234.87 531.681 241.098Z" fill="white"/>
<path d="M536.207 203.049C536.084 205.782 535.112 208.407 533.427 210.561C532.18 212.19 530.578 213.511 528.742 214.426C526.906 215.34 524.886 215.824 522.835 215.839C520.848 215.851 518.889 215.376 517.127 214.456C515.366 213.536 513.857 212.199 512.732 210.561C511.241 208.348 510.504 205.714 510.628 203.049C510.81 199.621 512.292 196.391 514.774 194.018C517.255 191.645 520.548 190.308 523.981 190.279C525.637 190.264 527.279 190.588 528.805 191.232C530.331 191.875 531.709 192.824 532.855 194.021C534 195.217 534.889 196.635 535.465 198.188C536.041 199.741 536.294 201.395 536.207 203.049Z" fill="#37B8F1"/>
<path d="M404.277 372.802C404.187 374.315 403.526 375.738 402.428 376.784C401.331 377.829 399.877 378.419 398.361 378.436C397.629 378.445 396.903 378.303 396.228 378.02C395.553 377.737 394.943 377.319 394.437 376.791C393.93 376.262 393.536 375.636 393.281 374.95C393.026 374.264 392.914 373.533 392.953 372.802C393.034 371.285 393.692 369.857 394.792 368.81C395.891 367.763 397.35 367.175 398.868 367.168C399.6 367.162 400.324 367.305 400.998 367.589C401.672 367.873 402.281 368.292 402.787 368.819C403.293 369.347 403.687 369.972 403.943 370.657C404.199 371.342 404.313 372.071 404.277 372.802Z" fill="#263238"/>
<path d="M429.593 372.802C429.507 374.317 428.847 375.742 427.749 376.788C426.65 377.835 425.194 378.424 423.677 378.436C422.946 378.442 422.223 378.298 421.55 378.014C420.877 377.73 420.269 377.311 419.764 376.784C419.259 376.256 418.868 375.63 418.614 374.945C418.36 374.261 418.248 373.531 418.287 372.802C418.368 371.289 419.023 369.863 420.119 368.816C421.215 367.77 422.668 367.18 424.184 367.168C424.916 367.159 425.642 367.301 426.317 367.584C426.992 367.867 427.602 368.285 428.109 368.813C428.616 369.341 429.009 369.968 429.264 370.654C429.519 371.34 429.631 372.071 429.593 372.802Z" fill="#263238"/>
<path d="M454.927 372.802C454.841 374.317 454.182 375.742 453.083 376.788C451.984 377.835 450.528 378.424 449.011 378.436C448.28 378.442 447.555 378.298 446.881 378.014C446.208 377.731 445.599 377.312 445.092 376.785C444.586 376.257 444.193 375.632 443.936 374.947C443.68 374.262 443.567 373.532 443.602 372.802C443.688 371.287 444.347 369.861 445.446 368.815C446.545 367.769 448.001 367.18 449.518 367.168C450.25 367.159 450.976 367.301 451.651 367.584C452.326 367.867 452.936 368.285 453.443 368.813C453.95 369.341 454.343 369.968 454.598 370.654C454.854 371.34 454.965 372.071 454.927 372.802Z" fill="#263238"/>
<path d="M400.014 468.091C399.924 469.605 399.263 471.028 398.165 472.073C397.068 473.119 395.614 473.709 394.098 473.725C393.367 473.731 392.642 473.588 391.969 473.304C391.295 473.02 390.686 472.602 390.18 472.074C389.673 471.547 389.28 470.921 389.024 470.237C388.768 469.552 388.654 468.822 388.69 468.091C388.776 466.577 389.435 465.151 390.533 464.105C391.632 463.058 393.088 462.469 394.605 462.457C395.337 462.451 396.061 462.595 396.735 462.879C397.409 463.163 398.018 463.581 398.524 464.109C399.03 464.636 399.424 465.262 399.68 465.946C399.936 466.631 400.05 467.361 400.014 468.091Z" fill="#263238"/>
<path d="M425.329 468.091C425.244 469.603 424.587 471.026 423.492 472.072C422.398 473.118 420.947 473.709 419.433 473.725C418.701 473.734 417.975 473.593 417.3 473.31C416.624 473.027 416.015 472.608 415.508 472.08C415.001 471.552 414.607 470.926 414.352 470.24C414.097 469.554 413.985 468.822 414.024 468.091C414.11 466.577 414.769 465.151 415.868 464.105C416.966 463.058 418.422 462.469 419.94 462.457C420.67 462.451 421.394 462.595 422.067 462.879C422.74 463.163 423.347 463.582 423.852 464.11C424.357 464.637 424.749 465.263 425.003 465.948C425.257 466.633 425.368 467.362 425.329 468.091Z" fill="#263238"/>
<path d="M450.72 468.092C450.634 469.606 449.975 471.032 448.876 472.078C447.777 473.125 446.322 473.714 444.804 473.726C444.074 473.729 443.35 473.584 442.678 473.299C442.005 473.014 441.398 472.595 440.892 472.068C440.386 471.541 439.993 470.917 439.735 470.234C439.478 469.55 439.363 468.821 439.396 468.092C439.486 466.578 440.146 465.155 441.244 464.11C442.342 463.064 443.795 462.474 445.311 462.458C446.043 462.449 446.769 462.59 447.444 462.873C448.119 463.156 448.729 463.575 449.236 464.103C449.743 464.631 450.136 465.257 450.392 465.943C450.647 466.629 450.759 467.361 450.72 468.092Z" fill="#263238"/>
<path d="M475.998 468.091C475.908 469.605 475.247 471.028 474.149 472.073C473.051 473.119 471.598 473.709 470.082 473.725C469.352 473.729 468.628 473.584 467.956 473.299C467.283 473.014 466.676 472.595 466.17 472.068C465.664 471.541 465.27 470.917 465.013 470.234C464.756 469.55 464.64 468.821 464.674 468.091C464.764 466.578 465.424 465.155 466.522 464.11C467.62 463.064 469.073 462.474 470.589 462.457C471.32 462.451 472.045 462.595 472.719 462.879C473.393 463.163 474.001 463.581 474.508 464.109C475.014 464.636 475.408 465.262 475.664 465.946C475.92 466.631 476.034 467.361 475.998 468.091Z" fill="#263238"/>
<path d="M501.426 468.091C501.336 469.605 500.675 471.028 499.577 472.073C498.48 473.119 497.026 473.709 495.51 473.725C494.778 473.734 494.052 473.593 493.377 473.31C492.702 473.027 492.092 472.608 491.585 472.08C491.078 471.552 490.685 470.926 490.43 470.24C490.175 469.554 490.063 468.822 490.102 468.091C490.187 466.577 490.847 465.151 491.945 464.105C493.044 463.058 494.5 462.469 496.017 462.457C496.749 462.451 497.473 462.595 498.147 462.879C498.821 463.163 499.43 463.581 499.936 464.109C500.442 464.636 500.836 465.262 501.092 465.946C501.348 466.631 501.462 467.361 501.426 468.091Z" fill="#263238"/>
<path d="M497.582 238.592C505.443 230.905 505.86 218.584 498.514 211.072C491.168 203.56 478.841 203.702 470.98 211.389C463.12 219.075 462.703 231.396 470.049 238.908C477.395 246.42 489.722 246.279 497.582 238.592Z" fill="#37B8F1"/>
<path d="M521.22 269.362C516.541 275.492 510.52 280.468 503.618 283.909C496.716 287.35 489.118 289.164 481.407 289.212C473.928 289.275 466.55 287.498 459.921 284.036C453.292 280.574 447.617 275.535 443.396 269.362C452.523 260.272 466.965 254.338 482.965 254.338C498.966 254.338 512.901 260.272 521.22 269.362Z" fill="#37B8F1"/>
<path opacity="0.1" d="M497.582 238.592C505.443 230.905 505.86 218.584 498.514 211.072C491.168 203.56 478.841 203.702 470.98 211.389C463.12 219.075 462.703 231.396 470.049 238.908C477.395 246.42 489.722 246.279 497.582 238.592Z" fill="white"/>
<path opacity="0.1" d="M521.22 269.362C516.541 275.492 510.52 280.468 503.618 283.909C496.716 287.35 489.118 289.164 481.407 289.212C473.928 289.275 466.55 287.498 459.921 284.036C453.292 280.574 447.617 275.535 443.396 269.362C452.523 260.272 466.965 254.338 482.965 254.338C498.966 254.338 512.901 260.272 521.22 269.362Z" fill="white"/>
<path d="M244.91 398.962C243.126 402.869 241.248 407.169 239.614 411.338C237.98 415.507 236.309 419.808 234.863 424.09C231.91 432.528 229.661 441.197 228.139 450.006L227.726 452.767C227.687 453.241 227.731 453.717 227.858 454.176C228.301 455.732 228.999 457.204 229.924 458.532C232.335 461.971 235.133 465.121 238.262 467.922C241.561 470.991 245.021 473.881 248.628 476.58C252.234 479.36 256.028 482.064 259.765 484.618L256.253 491.21C247.329 487.321 238.859 482.466 230.994 476.73C226.798 473.67 223.011 470.085 219.726 466.063C217.779 463.669 216.26 460.956 215.238 458.044C214.643 456.225 214.339 454.324 214.336 452.41C214.336 451.959 214.336 451.302 214.336 450.983V450.063L214.524 448.185C215.601 438.4 217.658 428.749 220.665 419.376C222.13 414.756 223.689 410.155 225.473 405.667C227.257 401.178 229.097 396.784 231.37 392.22L244.91 398.962Z" fill="#E58A7B"/>
<path d="M257.117 483.454L270.394 476.73L266.958 491.304C266.958 491.304 257.849 493.858 253.624 489.426L257.117 483.454Z" fill="#E58A7B"/>
<path d="M282.545 479.115L279.014 491.172L266.958 491.304L270.394 476.73L282.545 479.115Z" fill="#E58A7B"/>
<path d="M301.288 328.65C301.998 331.253 302.986 333.771 304.236 336.162C303.871 336.576 303.401 336.884 302.875 337.052C302.349 337.221 301.788 337.244 301.25 337.12L301.288 328.65Z" fill="#DF5753"/>
<path d="M300.893 328.763C301.671 328.763 302.302 327.796 302.302 326.603C302.302 325.41 301.671 324.443 300.893 324.443C300.115 324.443 299.485 325.41 299.485 326.603C299.485 327.796 300.115 328.763 300.893 328.763Z" fill="#263238"/>
<path d="M300.48 324.518L303.335 323.711C303.335 323.711 301.945 325.927 300.48 324.518Z" fill="#263238"/>
<path d="M264.61 342.435C266.319 351.167 268.028 367.187 261.906 373.027C261.906 373.027 264.31 381.891 280.554 381.891C298.414 381.891 289.081 373.027 289.081 373.027C279.334 370.698 279.578 363.468 281.287 356.67L264.61 342.435Z" fill="#E58A7B"/>
<path d="M259.859 322.528C260.76 337.12 260.835 343.317 268.197 350.81C279.296 362.078 297.024 357.797 300.499 343.298C303.635 330.152 301.644 308.518 287.353 302.715C284.216 301.422 280.801 300.952 277.431 301.347C274.061 301.743 270.848 302.991 268.096 304.975C265.343 306.959 263.142 309.612 261.701 312.683C260.259 315.755 259.625 319.143 259.859 322.528Z" fill="#E58A7B"/>
<path d="M261.305 306.114C253.981 308.781 244.215 306.79 248.046 329.382C252.103 353.308 245.868 361.177 245.868 361.177C245.868 361.177 273.643 367.093 302.001 360.82C302.001 360.82 293.344 345.683 295.766 334.528C298.865 320.443 296.423 315.241 296.423 315.241C296.423 315.241 271.596 302.358 261.305 306.114Z" fill="#263238"/>
<path d="M292.292 330.134C292.3 332.908 293.094 335.624 294.583 337.965C296.574 341.007 298.921 339.843 299.503 336.613C300.029 333.777 299.635 328.763 297.1 326.81C294.564 324.856 292.329 326.772 292.292 330.134Z" fill="#E58A7B"/>
<path d="M254.938 308.574C252.835 302.658 262.864 293.55 284.085 297.306C305.306 301.062 306.227 318.734 306.227 318.734L301.945 313.626L302.133 318.997L280.329 323.185L254.938 308.574Z" fill="#263238"/>
<path d="M256.741 374.022C256.616 373.165 256.831 372.292 257.339 371.591C257.848 370.889 258.611 370.414 259.465 370.266C266.075 369.177 281.099 366.961 288.649 368.013C294.283 368.802 295.747 372.069 295.992 374.755C296.03 375.225 295.967 375.698 295.807 376.142C295.647 376.586 295.394 376.99 295.065 377.329C294.736 377.667 294.339 377.93 293.899 378.102C293.46 378.273 292.988 378.349 292.517 378.323L259.878 376.858C259.108 376.819 258.376 376.516 257.804 375.999C257.233 375.482 256.857 374.784 256.741 374.022Z" fill="#37B8F1"/>
<path opacity="0.6" d="M256.741 374.022C256.616 373.165 256.831 372.292 257.339 371.591C257.848 370.889 258.611 370.414 259.465 370.266C266.075 369.177 281.099 366.961 288.649 368.013C294.283 368.802 295.747 372.069 295.992 374.755C296.03 375.225 295.967 375.698 295.807 376.142C295.647 376.586 295.394 376.99 295.065 377.329C294.736 377.667 294.339 377.93 293.899 378.102C293.46 378.273 292.988 378.349 292.517 378.323L259.878 376.858C259.108 376.819 258.376 376.516 257.804 375.999C257.233 375.482 256.857 374.784 256.741 374.022Z" fill="black"/>
<path d="M275.615 702.109L287.728 710.523L307.992 683.047L295.879 674.653L275.615 702.109Z" fill="#E58A7B"/>
<path d="M247.37 701.564L260.159 708.851L278.094 679.798L265.305 672.512L247.37 701.564Z" fill="#E58A7B"/>
<path d="M307.973 683.047L297.532 697.208L285.418 688.813L295.86 674.653L307.973 683.047Z" fill="#CF6F64"/>
<path d="M265.286 672.512L278.094 679.817L268.854 694.785L256.047 687.479L265.286 672.512Z" fill="#CF6F64"/>
<path d="M285.832 465.744C285.832 465.744 333.12 525.333 324.237 582.33C317.081 628.36 275.578 690.691 275.578 690.691L256.065 681C269.819 653.441 281.556 624.921 291.184 595.664C294.153 586.581 295.02 576.942 293.718 567.474C292.417 558.007 288.982 548.959 283.672 541.014C259.709 506.027 221.322 526.854 247.145 465.744H285.832Z" fill="#37B8F1"/>
<path opacity="0.6" d="M285.832 465.744C285.832 465.744 333.12 525.333 324.237 582.33C317.081 628.36 275.578 690.691 275.578 690.691L256.065 681C269.819 653.441 281.556 624.921 291.184 595.664C294.153 586.581 295.02 576.942 293.718 567.474C292.417 558.007 288.982 548.959 283.672 541.014C259.709 506.027 221.322 526.854 247.145 465.744H285.832Z" fill="black"/>
<path opacity="0.4" d="M309.025 504.018L302.151 497.182C302.151 497.726 315.466 579.926 319.204 603.026C321.409 596.278 323.098 589.372 324.255 582.368C328.65 554.404 319.467 525.84 309.025 504.018Z" fill="black"/>
<path d="M306.94 465.744C306.94 465.744 363.881 540.639 365.496 585.542C366.83 623.102 303.522 695.874 303.522 695.874L285.118 683.968C285.118 683.968 322.171 632.285 331.505 590.068C327.899 548.226 251.652 465.744 251.652 465.744H306.94Z" fill="#37B8F1"/>
<path opacity="0.6" d="M306.94 465.744C306.94 465.744 363.881 540.639 365.496 585.542C366.83 623.102 303.522 695.874 303.522 695.874L285.118 683.968C285.118 683.968 322.171 632.285 331.505 590.068C327.899 548.226 251.652 465.744 251.652 465.744H306.94Z" fill="black"/>
<path d="M236.497 376.37C230.412 377.816 224.571 399.939 224.571 399.939L248.365 415.827C248.365 415.827 256.291 398.324 253.511 390.662C250.638 382.68 244.14 374.548 236.497 376.37Z" fill="#37B8F1"/>
<path opacity="0.2" d="M241.154 390.624L239.501 409.911L248.347 415.846C250.789 410.347 252.597 404.588 253.737 398.681L241.154 390.624Z" fill="black"/>
<path d="M313.983 376.802C313.983 376.802 321.007 379.262 306.94 465.725H247.107C248.121 441.311 248.14 426.287 236.497 376.37C244.874 374.643 253.366 373.526 261.906 373.027C270.952 372.378 280.034 372.378 289.081 373.027C300.762 374.098 313.983 376.802 313.983 376.802Z" fill="#37B8F1"/>
<path d="M320.067 390.624C321.42 394.38 322.847 398.418 324.349 402.305C325.852 406.193 327.279 410.193 328.8 414.137L333.401 425.93L334.566 428.879L335.167 430.344L335.448 431.076C335.448 431.208 335.448 431.208 335.448 431.189C335.105 430.705 334.655 430.307 334.134 430.024C333.391 429.587 332.553 429.336 331.692 429.292C330.977 429.27 330.265 429.404 329.608 429.686C328.744 430.081 328.744 430.25 328.763 430.231C328.919 430.106 329.058 429.961 329.176 429.799C330.215 428.434 331.115 426.968 331.861 425.423C332.744 423.696 333.589 421.855 334.434 419.996C336.087 416.24 337.608 412.352 339.129 408.427C340.65 404.502 342.096 400.54 343.505 396.54L347.787 384.558L355.017 386.436C353.59 395 351.749 403.338 349.533 411.827C348.463 416.052 347.205 420.24 345.777 424.466C345.064 426.588 344.275 428.691 343.373 430.851C342.434 433.195 341.277 435.446 339.918 437.574C339.418 438.29 338.866 438.968 338.265 439.602C337.306 440.638 336.142 441.463 334.847 442.025C333.698 442.518 332.454 442.749 331.204 442.701C329.804 442.649 328.441 442.242 327.241 441.518C325.827 440.635 324.652 439.415 323.823 437.968C323.542 437.48 323.298 436.992 323.129 436.635L322.772 435.921L322.058 434.457L320.631 431.546C318.753 427.639 316.875 423.696 315.241 419.733C313.607 415.77 311.879 411.752 310.264 407.714C308.649 403.676 307.203 399.638 305.832 395.281L320.067 390.624Z" fill="#E58A7B"/>
<path d="M313.983 376.802C321.176 378.511 329.27 399.77 329.27 399.77L307.879 417.968C307.879 417.968 294.038 394.793 296.837 387.15C299.748 379.187 304.593 374.567 313.983 376.802Z" fill="#37B8F1"/>
<path d="M351.186 377.835L358.698 371.562L363.919 379.694L360.069 386.474C360.069 386.474 353.947 392.108 348.538 389.234C347.68 387.305 347.474 385.148 347.952 383.091C348.429 381.034 349.565 379.188 351.186 377.835Z" fill="#E58A7B"/>
<path d="M372.257 371.581L371.694 373.628L359.806 375.619L358.642 371.562L372.257 371.581Z" fill="#E58A7B"/>
<path d="M304.987 696.832L283.54 682.972L287.39 676.287L311.485 691.104L304.987 696.832Z" fill="#37B8F1"/>
<path d="M268.554 707.875C266.672 707.645 264.864 707.003 263.258 705.997C263.192 705.973 263.134 705.93 263.094 705.873C263.053 705.816 263.031 705.748 263.031 705.677C263.031 705.607 263.053 705.539 263.094 705.481C263.134 705.424 263.192 705.381 263.258 705.358C263.84 705.17 268.892 703.611 270.357 704.813C270.522 704.95 270.647 705.129 270.719 705.33C270.792 705.531 270.809 705.749 270.77 705.959C270.744 706.297 270.632 706.623 270.445 706.906C270.257 707.188 270.001 707.418 269.7 707.574C269.348 707.766 268.955 707.869 268.554 707.875ZM264.329 705.809C266.676 707.011 268.554 707.443 269.455 706.992C269.652 706.883 269.817 706.726 269.935 706.535C270.054 706.345 270.121 706.127 270.132 705.903C270.132 705.602 270.132 705.471 269.963 705.396C269.174 704.757 266.357 705.245 264.291 705.809H264.329Z" fill="#263238"/>
<path d="M263.389 706.128C263.29 706.127 263.196 706.086 263.127 706.015C263.099 705.963 263.084 705.905 263.084 705.846C263.084 705.787 263.099 705.729 263.127 705.677C263.127 705.508 264.347 701.433 266.263 700.513C266.507 700.401 266.773 700.343 267.042 700.343C267.311 700.343 267.577 700.401 267.822 700.513C268.085 700.596 268.314 700.765 268.47 700.993C268.627 701.221 268.702 701.495 268.685 701.771C268.554 703.461 265.117 705.79 263.54 706.184L263.389 706.128ZM267.033 701.001C266.85 701.007 266.671 701.052 266.507 701.133C265.343 701.696 264.385 703.893 263.915 705.227C265.568 704.532 267.84 702.691 267.915 701.658C267.915 701.489 267.915 701.283 267.484 701.095C267.343 701.019 267.191 700.969 267.033 700.945V701.001Z" fill="#263238"/>
<path d="M295.353 715.987C293.231 715.987 290.282 713.264 288.667 711.593C288.626 711.535 288.604 711.467 288.604 711.396C288.604 711.325 288.626 711.256 288.667 711.199C288.704 711.138 288.757 711.089 288.82 711.056C288.883 711.023 288.953 711.007 289.024 711.011C289.775 711.011 296.292 711.987 297.212 713.828C297.31 713.993 297.361 714.181 297.361 714.372C297.361 714.564 297.31 714.752 297.212 714.917C297.074 715.204 296.866 715.45 296.606 715.634C296.347 715.818 296.045 715.933 295.729 715.969L295.353 715.987ZM289.907 711.856C292.273 714.147 294.358 715.424 295.541 715.274C295.748 715.247 295.945 715.169 296.116 715.048C296.286 714.927 296.424 714.766 296.517 714.579C296.559 714.515 296.582 714.44 296.582 714.363C296.582 714.286 296.559 714.211 296.517 714.147C296.029 713.133 292.555 712.269 289.907 711.856Z" fill="#263238"/>
<path d="M290.113 711.762C289.692 711.774 289.27 711.743 288.855 711.668C288.797 711.659 288.742 711.636 288.696 711.6C288.65 711.563 288.614 711.516 288.592 711.462C288.564 711.406 288.55 711.345 288.55 711.283C288.55 711.221 288.564 711.16 288.592 711.105C288.705 710.973 291.24 707.912 293.644 707.706C294.325 707.653 294.999 707.868 295.522 708.306C296.254 708.945 296.217 709.508 296.029 709.865C295.56 711.142 292.311 711.762 290.113 711.762ZM289.625 711.067C291.728 711.18 295.09 710.485 295.522 709.565C295.522 709.565 295.672 709.264 295.184 708.851C294.99 708.682 294.763 708.555 294.517 708.477C294.272 708.4 294.013 708.374 293.757 708.4C292.137 708.852 290.696 709.79 289.625 711.086V711.067Z" fill="#263238"/>
<path d="M263.897 704.1L247.971 699.593C247.697 699.509 247.401 699.531 247.141 699.652C246.881 699.773 246.675 699.986 246.563 700.25L241.191 712.325C241.065 712.635 241.006 712.967 241.018 713.301C241.029 713.635 241.111 713.962 241.259 714.262C241.406 714.562 241.615 714.827 241.872 715.04C242.129 715.254 242.428 715.41 242.75 715.499C248.384 716.964 251.089 717.377 258.093 719.387C262.413 720.589 268.573 722.823 274.526 724.514C280.479 726.204 282.47 720.401 280.16 719.161C269.718 713.64 268.892 709.771 266.037 705.64C265.526 704.892 264.769 704.347 263.897 704.1Z" fill="#37B8F1"/>
<path d="M289.099 709.396L275.503 700.006C275.272 699.838 274.988 699.76 274.704 699.788C274.42 699.816 274.156 699.947 273.963 700.156L264.948 709.846C264.729 710.097 264.565 710.391 264.468 710.71C264.37 711.029 264.342 711.364 264.385 711.695C264.428 712.025 264.54 712.343 264.715 712.626C264.89 712.91 265.123 713.153 265.399 713.34C270.188 716.551 272.667 717.847 278.658 721.997C282.414 724.551 289.681 730.223 294.752 733.753C299.823 737.284 303.597 732.439 301.795 730.523C293.719 721.903 291.954 716.495 290.62 711.593C290.389 710.704 289.85 709.925 289.099 709.396Z" fill="#37B8F1"/>
<path d="M278.075 691.93L253.568 679.742L256.103 673.094L282.282 685.939L278.075 691.93Z" fill="#37B8F1"/>
<path d="M246.206 462.213L244.14 467.622C243.933 468.035 244.422 468.467 245.117 468.467H307.241C307.785 468.467 308.236 468.204 308.274 467.866L308.8 462.495C308.8 462.138 308.368 461.819 307.785 461.819H247.182C247 461.802 246.816 461.829 246.646 461.897C246.476 461.966 246.325 462.074 246.206 462.213Z" fill="#37B8F1"/>
<path opacity="0.4" d="M246.206 462.213L244.14 467.622C243.933 468.035 244.422 468.467 245.117 468.467H307.241C307.785 468.467 308.236 468.204 308.274 467.866L308.8 462.495C308.8 462.138 308.368 461.819 307.785 461.819H247.182C247 461.802 246.816 461.829 246.646 461.897C246.476 461.966 246.325 462.074 246.206 462.213Z" fill="white"/>
<path d="M255.99 468.993H254.356C254.037 468.993 253.793 468.824 253.812 468.617L254.582 461.65C254.582 461.462 254.882 461.293 255.201 461.293H256.835C257.155 461.293 257.399 461.462 257.38 461.65L256.61 468.617C256.591 468.824 256.309 468.993 255.99 468.993Z" fill="#37B8F1"/>
<path d="M294.301 468.993H292.686C292.367 468.993 292.123 468.824 292.142 468.617L292.893 461.65C292.893 461.462 293.212 461.293 293.531 461.293H295.147C295.466 461.293 295.729 461.462 295.691 461.65L294.94 468.617C294.846 468.824 294.639 468.993 294.301 468.993Z" fill="#37B8F1"/>
<g style="mix-blend-mode:multiply">
<path d="M254.563 787.032C282.349 787.032 304.875 785.401 304.875 783.389C304.875 781.377 282.349 779.746 254.563 779.746C226.777 779.746 204.251 781.377 204.251 783.389C204.251 785.401 226.777 787.032 254.563 787.032Z" fill="#F5F5F5"/>
</g>
<path d="M285.212 778.243C276.31 775.652 266.432 772.327 260.46 768.853C260.291 768.741 260.103 768.684 259.934 768.59V728.288H277.944C279.311 728.207 280.596 727.607 281.535 726.611C282.474 725.614 282.998 724.296 282.998 722.927C282.998 721.557 282.474 720.239 281.535 719.243C280.596 718.246 279.311 717.646 277.944 717.565H260.028V533.859H249.211V717.565H231.313C230.582 717.522 229.851 717.628 229.162 717.878C228.474 718.128 227.845 718.516 227.312 719.018C226.779 719.52 226.355 720.126 226.064 720.798C225.774 721.47 225.625 722.195 225.625 722.927C225.625 723.659 225.774 724.383 226.064 725.055C226.355 725.727 226.779 726.333 227.312 726.835C227.845 727.337 228.474 727.725 229.162 727.975C229.851 728.225 230.582 728.332 231.313 728.288H249.211V768.534C249.042 768.534 248.873 768.684 248.704 768.797C242.638 772.327 232.834 775.652 223.933 778.187C223.331 778.369 222.815 778.76 222.477 779.289C222.139 779.819 222.002 780.452 222.091 781.074C222.179 781.696 222.488 782.266 222.96 782.68C223.432 783.094 224.037 783.326 224.665 783.333H284.479C285.08 783.292 285.648 783.046 286.089 782.637C286.53 782.228 286.817 781.68 286.903 781.084C286.989 780.488 286.868 779.881 286.56 779.365C286.252 778.848 285.776 778.452 285.212 778.243Z" fill="#E0E0E0"/>
<path d="M287.972 515.154H221.191C215.818 515.154 211.463 519.51 211.463 524.882V544.733C211.463 550.105 215.818 554.461 221.191 554.461H287.972C293.345 554.461 297.701 550.105 297.701 544.733V524.882C297.701 519.51 293.345 515.154 287.972 515.154Z" fill="#37B8F1"/>
<path d="M220.571 554.479V557.897C220.571 560.714 223.632 563.006 227.388 563.006H281.85C285.606 563.006 288.667 560.714 288.667 557.897V554.479H220.571Z" fill="#37B8F1"/>
<path opacity="0.3" d="M220.571 554.479V557.897C220.571 560.714 223.632 563.006 227.388 563.006H281.85C285.606 563.006 288.667 560.714 288.667 557.897V554.479H220.571Z" fill="white"/>
</svg>
