<svg width="509" height="509" viewBox="0 0 509 509" fill="none" xmlns="http://www.w3.org/2000/svg">
<path d="M395.747 74.2292C389.215 76.2652 354.094 86.9542 317.701 97.9825C225.657 125.808 227.777 125.129 225.741 127.844C224.723 129.116 223.96 131.237 223.96 133.019C223.96 134.715 229.559 154.397 236.346 176.877C243.132 199.273 248.901 218.276 249.155 219.124C249.495 220.397 252.464 217.852 263.662 206.824C271.551 199.104 279.356 192.147 281.222 191.214C286.397 188.754 297.68 188.924 303.025 191.554C313.374 196.644 320.67 206.993 321.349 217.682C321.688 222.942 321.433 224.384 319.482 228.711C318.21 231.425 316.598 234.31 315.834 235.158C315.071 236.006 314.816 236.685 315.325 236.685C315.834 236.685 346.29 227.523 383.107 216.325C444.442 197.662 450.21 195.795 452.416 193.42C456.488 188.924 457.167 191.808 436.807 129.371C429.341 106.466 422.3 84.9182 421.113 81.44C418.737 74.1443 418.568 73.805 415.683 71.8538C412.629 69.733 408.897 70.1572 395.747 74.2292ZM388.367 108.587C410.339 124.026 418.568 151.852 408.727 177.556C406.012 184.597 403.467 187.057 400.583 185.276C397.614 183.325 397.529 182.052 400.413 174.672C402.873 168.564 403.298 166.188 403.637 158.044C403.976 149.476 403.807 147.78 401.855 141.417C398.292 130.134 390.573 119.954 380.902 114.101C376.575 111.386 375.812 110.538 375.812 108.078C375.812 102.988 380.647 103.157 388.367 108.587ZM378.781 120.463C382.853 123.263 389.13 129.88 391.76 134.121C396.935 142.605 398.971 155.16 396.681 164.831C394.22 175.181 390.573 180.186 386.84 178.15C384.21 176.793 384.04 173.908 386.161 169.242C387.773 165.679 388.112 163.559 388.112 156.093C388.112 148.119 387.858 146.677 385.822 142.265C382.683 135.479 379.205 131.407 373.776 127.759C371.231 126.147 368.94 124.111 368.686 123.348C367.837 121.227 368.94 118.767 370.976 118.003C373.267 117.155 374.369 117.494 378.781 120.463ZM370.043 133.103C377.678 137.939 382.089 146.253 382.089 156.093C382.174 167.376 376.66 174.757 371.994 169.667C370.467 167.97 370.467 167.715 371.824 163.898C373.691 158.723 373.606 152.276 371.655 147.949C370.806 146.083 368.092 142.859 365.716 140.823C360.881 136.751 360.202 134.121 363.256 132.001C365.716 130.304 365.462 130.219 370.043 133.103Z" fill="#37B8F1" fill-opacity="0.4"/>
<path d="M218.022 181.713C162.541 193.165 148.289 196.474 144.132 198.595C139.127 201.055 134.546 207.078 132.51 213.525C131.492 216.749 128.353 229.22 125.553 241.351C116.307 281.562 113.507 293.014 111.386 299.886C108.247 309.981 102.055 322.282 93.9953 334.413L86.7845 345.102L114.016 372.249L141.248 399.395L149.646 392.778C159.063 385.313 171.703 376.49 195.965 360.626C213.695 349.004 223.281 340.86 229.559 332.038C231.595 329.153 237.533 318.719 242.623 308.878C247.713 299.037 253.737 288.264 256.027 284.955C258.402 281.562 270.534 268.582 284.361 254.67C297.68 241.266 309.472 228.965 310.575 227.353C313.12 223.621 313.374 215.816 310.999 211.235C306.079 201.818 295.899 196.304 287.415 198.51C284.192 199.358 279.611 203.685 248.816 234.394L213.78 269.261L204.703 270.279C194.693 271.297 192.572 270.873 192.572 267.734C192.572 264.765 194.099 263.916 201.903 263.068C206.06 262.644 209.199 261.796 209.623 261.117C210.047 260.523 211.235 257.299 212.253 254.076C214.798 245.932 214.798 234.734 212.083 224.554C210.387 217.852 210.302 216.919 211.49 215.731C213.78 213.441 216.155 215.137 217.682 220.227C218.531 222.772 219.464 224.808 219.803 224.808C220.482 224.808 238.551 218.022 239.06 217.513C239.23 217.428 237.194 210.132 234.564 201.309C231.85 192.572 229.305 184.088 228.88 182.561C228.032 179.422 228.626 179.507 218.022 181.713Z" fill="#37B8F1" fill-opacity="0.4"/>
<path d="M294.541 256.451C281.053 269.94 281.562 268.837 285.719 277.15C291.063 287.585 306.673 292.42 309.387 284.446C310.49 281.392 308.454 244.32 307.182 244.32C306.927 244.32 301.243 249.749 294.541 256.451Z" fill="#37B8F1" fill-opacity="0.4"/>
<path d="M271.721 279.271C267.479 283.852 262.559 290.639 257.808 298.698C255.348 303.025 255.179 303.619 255.603 309.133C256.536 320.246 262.389 327.881 269.94 327.881C275.454 327.881 276.048 326.524 280.374 306.079L284.276 287.585L281.731 284.446C280.289 282.665 278.593 279.78 277.829 277.999C277.15 276.302 276.387 274.86 276.217 274.86C276.048 274.86 274.096 276.896 271.721 279.271Z" fill="#37B8F1" fill-opacity="0.4"/>
<path d="M64.0492 356.385C56.5838 363.681 54.2933 366.395 54.2933 368.092C54.2933 369.789 60.9952 376.999 87.6328 403.722C105.872 422.216 121.312 437.57 121.736 437.91C124.026 439.691 126.486 438.164 135.733 428.833C144.641 419.925 145.319 418.992 144.641 417.041C143.538 414.241 76.7742 346.968 75.0775 346.968C74.3988 346.968 69.3937 351.21 64.0492 356.385Z" fill="#37B8F1" fill-opacity="0.4"/>
</svg>
